<?xml version="1.0" standalone="no"?><!DOCTYPE svg PUBLIC "-//W3C//DTD SVG 1.1//EN" "http://www.w3.org/Graphics/SVG/1.1/DTD/svg11.dtd"><svg t="1610441117135" class="icon" viewBox="0 0 1024 1024" version="1.1" xmlns="http://www.w3.org/2000/svg" p-id="694" xmlns:xlink="http://www.w3.org/1999/xlink" width="48" height="48"><defs><style type="text/css"></style></defs><path d="M368.332 512.332m-48 0a24 24 0 1 0 96 0 24 24 0 1 0-96 0Z" fill="#ffffff" p-id="695"></path><path d="M512.332 512.332m-48 0a24 24 0 1 0 96 0 24 24 0 1 0-96 0Z" fill="#ffffff" p-id="696"></path><path d="M656.332 512.332m-48 0a24 24 0 1 0 96 0 24 24 0 1 0-96 0Z" fill="#ffffff" p-id="697"></path><path d="M336 784c-12.286 0-24.57-4.688-33.942-14.058l-224-224c-18.746-18.746-18.746-49.138 0-67.882l224-224c18.746-18.744 49.136-18.744 67.882 0 18.742 18.744 18.742 49.136 0 67.882L179.882 512l190.058 190.058c18.742 18.744 18.742 49.136 0 67.882C360.566 779.312 348.286 784 336 784z" fill="#ffffff" p-id="698"></path><path d="M688 784c12.286 0 24.57-4.688 33.942-14.058l224-224c18.746-18.746 18.746-49.138 0-67.882l-224-224c-18.746-18.744-49.136-18.744-67.882 0-18.742 18.744-18.742 49.136 0 67.882L844.118 512l-190.058 190.058c-18.742 18.744-18.742 49.136 0 67.882C663.434 779.312 675.714 784 688 784z" fill="#ffffff" p-id="699"></path></svg>