<?xml version="1.0" standalone="no"?><!DOCTYPE svg PUBLIC "-//W3C//DTD SVG 1.1//EN" "http://www.w3.org/Graphics/SVG/1.1/DTD/svg11.dtd"><svg t="1610510053377" class="icon" viewBox="0 0 1028 1024" version="1.1" xmlns="http://www.w3.org/2000/svg" p-id="3185" xmlns:xlink="http://www.w3.org/1999/xlink" width="48.1875" height="48"><defs><style type="text/css"></style></defs><path d="M8.533333 192c0-25.6 17.066667-42.666667 34.133334-42.666667h490.666666c21.333333 0 34.133333 17.066667 34.133334 42.666667 0 21.333333-17.066667 42.666667-34.133334 42.666667h-490.666666c-21.333333 0-34.133333-21.333333-34.133334-42.666667z m550.4 213.333333c0 25.6-21.333333 42.666667-46.933333 42.666667h-465.066667c-25.6 0-46.933333-17.066667-46.933333-42.666667 0-21.333333 21.333333-42.666667 46.933333-42.666666h465.066667c25.6 0 46.933333 17.066667 46.933333 42.666666z m-507.733333 256c-25.6 0-46.933333-17.066667-46.933333-42.666666s21.333333-42.666667 46.933333-42.666667h465.066667c25.6 0 46.933333 17.066667 46.933333 42.666667 0 21.333333-21.333333 42.666667-46.933333 42.666666h-465.066667z m507.733333 170.666667c0 25.6-21.333333 42.666667-51.2 42.666667h-452.266666c-29.866667 0-51.2-17.066667-51.2-42.666667s21.333333-42.666667 51.2-42.666667h452.266666c29.866667 0 51.2 17.066667 51.2 42.666667z m140.8-85.333333l221.866667-238.933334-221.866667-238.933333c-17.066667-17.066667-17.066667-51.2 0-68.266667 17.066667-17.066667 46.933333-17.066667 64 0l251.733334 273.066667c17.066667 17.066667 17.066667 51.2 0 68.266667l-251.733334 273.066666c-17.066667 17.066667-46.933333 17.066667-64 0-17.066667-17.066667-17.066667-46.933333 0-68.266666z" p-id="3186" fill="#ffffff"></path></svg>